<?xml version="1.0" encoding="utf-8"?>
<!-- Generator: Adobe Illustrator 21.1.0, SVG Export Plug-In . SVG Version: 6.00 Build 0)  -->
<svg version="1.1" id="Layer_1" xmlns="http://www.w3.org/2000/svg" xmlns:xlink="http://www.w3.org/1999/xlink" x="0px" y="0px"
	 viewBox="0 0 200.9 210" style="enable-background:new 0 0 200.9 210;" xml:space="preserve">
<style type="text/css">
	.st0{fill:#FFFFFF;}
</style>
<path class="st0" d="M100.5,0c14.3,0,18.8,10.3,22.6,20.5c1.6,4.3,38.8,106,39.9,109.1c0.3,0.9,0.1,2.2-1.2,2.8
	c-1.3,0.5-20.6,8-21.7,8.4c-1.1,0.4-2.3-0.2-2.7-1.3c-0.4-1.1-8.4-23.2-9.3-25.7H73c-0.9,2.5-9,24.7-9.3,25.7
	c-0.4,1-1.5,1.7-2.7,1.3c-1.1-0.4-20.5-8-21.7-8.4c-1.1-0.4-1.6-1.7-1.2-2.8c1.4-3.8,38-103.9,39.9-109.1C81.5,10.4,86.2,0,100.5,0z
	 M35.1,182c-1.2,0-2.1,1-2.1,2.1v23.8c0,1.2,0.9,2.1,2.1,2.1h130.8c1.2,0,2.1-0.9,2.1-2.1v-23.8c0-1.2-0.9-2.1-2.1-2.1H35.1z
	 M100.4,33.2L81.8,89.1h37.6l-18.8-55.9H100.4z"/>
</svg>
