<svg width="30" height="30" viewBox="0 0 30 30" fill="none" xmlns="http://www.w3.org/2000/svg">
<path fill-rule="evenodd" clip-rule="evenodd" d="M0 15.0027C0 6.72405 6.70808 0.0106477 14.9814 0V5.4197C9.7001 5.43035 5.4197 9.71606 5.4197 14.9973C5.4197 20.2893 9.71075 24.575 14.9974 24.575C20.2573 24.575 24.5803 20.3265 24.5803 14.9601L30 14.9654C30 23.2813 23.2813 30 14.9974 30C6.71873 30 0 23.2866 0 15.0027Z" fill="white"/>
<path d="M8.38513 15.0027C8.38513 11.3292 11.3665 8.34784 15.04 8.34784C18.7134 8.34784 21.6948 11.3292 21.6948 15.0027C21.6948 18.6761 18.7134 21.6575 15.04 21.6575C11.3612 21.6575 8.38513 18.6761 8.38513 15.0027Z" fill="white"/>
<path d="M19.6505 6.57498C19.6505 4.46673 21.3594 2.76309 23.4623 2.76309C25.5706 2.76309 27.2742 4.47205 27.2742 6.57498C27.2742 8.67791 25.5653 10.3869 23.4623 10.3869C21.3594 10.3869 19.6505 8.67791 19.6505 6.57498Z" fill="white"/>
</svg>
