<svg width="116" height="68" viewBox="0 0 116 68" fill="none" xmlns="http://www.w3.org/2000/svg">
<path fill-rule="evenodd" clip-rule="evenodd" d="M84.3474 40.5C87.1574 40.5 89.6843 38.7892 90.728 36.1801L105.2 3.8147e-05H116L90.728 63.1801C89.6843 65.7892 87.1574 67.5 84.3474 67.5C81.6924 67.5 79.275 65.9707 78.1377 63.5717L48 3.05176e-05H60.8L78.1377 36.5717C79.275 38.9707 81.6925 40.5 84.3474 40.5Z" fill="white"/>
<path fill-rule="evenodd" clip-rule="evenodd" d="M18.3852 57C16.3406 57 14.5021 58.2448 13.7428 60.143L10.8 67.5H0L25.2721 4.31991C26.3157 1.71085 28.8426 3.05176e-05 31.6527 3.05176e-05C34.3076 3.05176e-05 36.725 1.52932 37.8623 3.92831L68 67.5H55.2L51.5772 59.8581C50.7497 58.1127 48.9908 57 47.0591 57H18.3852ZM25.272 31.3199C26.3157 28.7109 28.8426 27 31.6526 27C34.3075 27.0001 36.725 28.5293 37.8623 30.9283L45.2784 46.5716C45.5929 47.2351 45.109 48 44.3748 48H20.077C19.3696 48 18.8858 47.2855 19.1486 46.6286L25.272 31.3199Z" fill="white"/>
</svg>
